<?xml version="1.0" encoding="UTF-8" standalone="no"?>
<!-- Created with Inkscape (http://www.inkscape.org/) -->

<svg
   width="512"
   height="512"
   viewBox="0 0 512 512"
   version="1.1"
   id="svg5"
   xml:space="preserve"
   inkscape:version="1.2.1 (9c6d41e410, 2022-07-14)"
   sodipodi:docname="2.svg"
   inkscape:export-filename="4.svg"
   inkscape:export-xdpi="96"
   inkscape:export-ydpi="96"
   xmlns:inkscape="http://www.inkscape.org/namespaces/inkscape"
   xmlns:sodipodi="http://sodipodi.sourceforge.net/DTD/sodipodi-0.dtd"
   xmlns="http://www.w3.org/2000/svg"
   xmlns:svg="http://www.w3.org/2000/svg">
	<sodipodi:namedview
   id="namedview7"
   pagecolor="#ffffff"
   bordercolor="#000000"
   borderopacity="0.25"
   inkscape:showpageshadow="2"
   inkscape:pageopacity="0.0"
   inkscape:pagecheckerboard="0"
   inkscape:deskcolor="#d1d1d1"
   inkscape:document-units="px"
   showgrid="false"
   inkscape:zoom="1.1490485"
   inkscape:cx="53.522545"
   inkscape:cy="330.70841"
   inkscape:window-width="1920"
   inkscape:window-height="1009"
   inkscape:window-x="-8"
   inkscape:window-y="-8"
   inkscape:window-maximized="1"
   inkscape:current-layer="layer3" />
	<defs
   id="defs2" />
   <linearGradient
   id="rainbow"
   gradientUnits="userSpaceOnUse">
      <stop
   offset="20%"
   stop-color="rgb(255,0,0)"
   id="stop4" />
      <stop
   offset="40%"
   stop-color="rgb(255,255,0)"
   id="stop6" />
      <stop
   offset="60%"
   stop-color="rgb(0,192,255)"
   id="stop8" />
      <stop
   offset="80%"
   stop-color="rgb(192,0,255)"
   id="stop10" />
    </linearGradient>
	<g
   inkscape:groupmode="layer"
   id="layer3"
   inkscape:label="Layer 2"
   style="display:inline">
		<ellipse
   style="fill:#000000;fill-opacity:0.1;stroke:none;stroke-width:2.74165;stroke-linecap:round;stroke-linejoin:round;stroke-dasharray:none;stroke-opacity:1"
   id="path7282"
   cx="242.86082"
   cy="458.37946"
   rx="156.06879"
   ry="35.221752" />
	</g>
	<g
   inkscape:label="Layer 1"
   inkscape:groupmode="layer"
   id="layer1"
   transform="translate(-51.269096,-87.060729)"
   style="display:inline">
		

		
		
		
		
		
		
		
		
		
		
		
		
		
		
		
		
		
		
		
		
		
		
		
		
		
		
		
		
	<path
   style="display:inline;fill:#ff8900;fill-opacity:1;stroke:#000000;stroke-width:2.36163;stroke-linecap:round;stroke-linejoin:round;stroke-dasharray:none"
   d="m 410.02367,160.01522 c -4.97615,-3.12659 -24.17615,13.31435 -31.85276,5.73436 -2.53093,-2.49909 4.395,-8.13847 1.75746,-10.52474 -8.13472,-7.35975 -24.21989,16.60238 -31.75753,8.63222 -3.01272,-3.18559 6.78537,-8.97518 4.15232,-12.48111 -5.63993,-7.50963 -23.20031,9.06885 -28.15395,1.08981 -3.01192,-4.85141 7.80203,-9.35053 8.18735,-15.04785 0.38478,-5.68926 -9.71142,-11.59578 -6.07804,-15.9906 5.17893,-6.26427 17.02834,8.37723 24.01501,4.22404 3.62937,-2.15746 0.12544,-10.40803 4.033,-12.00737 6.45554,-2.64225 11.81683,10.82836 18.65921,9.4728 5.37857,-1.06557 5.24672,-12.15738 10.72057,-12.47598 7.27933,-0.42367 8.80099,15.15507 16.08517,14.825 4.15598,-0.18831 4.32531,-10.20731 8.3748,-9.25374 9.56816,2.2531 7.95246,28.39705 7.95246,28.39705 -0.56817,3.01826 5.00279,8.77857 4.9702,11.95047"
   id="path5832"
   sodipodi:nodetypes="caaaaaaaaaaaaacc"
   class="secondaryColor" /><path
   style="display:inline;fill:#bd0000;fill-opacity:1;stroke:#000000;stroke-width:2.36163;stroke-linecap:round;stroke-linejoin:round;stroke-dasharray:none"
   d="m 172.55005,296.26899 c -19.92856,4.64086 -24.22854,45.39656 -17.28635,62.03901 3.01495,22.02051 17.2142,39.97244 36.93634,51.75331 4.64789,3.04443 23.14909,14.80613 33.65145,17.25908 -6.29511,-9.40337 -3.85435,-9.16135 6.0606,-6.66951 -8.54821,-5.59326 -7.5683,-9.8206 3.06799,-5.85687 -2.78817,-10.5733 -23.58837,-11.89088 -33.52848,-16.78713 -15.51187,-7.64079 -5.9724,-26.2029 6.1594,-32.44519 12.23438,-6.29506 20.91253,-28.17964 15.24934,-45.87628"
   id="path4869-2"
   class="primaryColor"
   sodipodi:nodetypes="ccccccssc" /><path
   style="fill:#bd0000;fill-opacity:1;stroke:#000000;stroke-width:2.36163;stroke-linecap:round;stroke-linejoin:round;stroke-dasharray:none"
   d="m 338.93404,399.98036 c 15.2255,6.1068 26.5793,11.30049 35.57484,21.93905 9.6627,11.42755 11.01422,27.71097 16.88739,41.59838 4.29321,-9.63485 5.31772,-13.31783 7.90585,-2.70008 1.32543,-10.15729 7.93274,-9.83648 13.20362,1.95702 1.98393,-8.07055 -1.89265,-30.95641 -9.99777,-41.38259 -8.91509,-11.46812 -29.0212,-23.43705 -44.98178,-30.54163"
   id="path4853"
   sodipodi:nodetypes="cacccsc"
   class="primaryColor" /><path
   style="display:inline;fill:#ff8900;fill-opacity:1;stroke:#000000;stroke-width:2.36163;stroke-linecap:round;stroke-linejoin:round;stroke-dasharray:none"
   d="m 417.91266,308.47203 c -4.39132,3.879 -14.89913,-8.53696 -16.60895,-3.16654 -6.61888,20.78931 41.05702,16.6281 59.54671,27.17049 12.56941,7.16679 26.4323,46.8855 35.33838,25.71015 -2.3691,-19.79962 -18.6188,-32.18566 -21.29402,-51.57923 -2.18636,-18.82127 -1.89179,-36.90342 -5.02567,-55.06701 -1.1432,-6.62592 1.71639,-19.75326 -5.00407,-19.54091 -9.55448,0.30191 3.94213,25.91502 -5.34613,28.17503 -11.19111,2.72301 -16.86299,-27.67814 -21.31788,-27.19277 -11.79317,2.36417 7.50707,23.61203 10.09594,35.707 1.55574,7.26825 10.23902,19.53646 3.24794,22.06083 -10.92702,3.94559 -12.08653,-30.21109 -18.12355,-29.7698 -11.08231,0.81003 1.53375,11.41709 -2.57343,15.88547 -4.30552,4.68415 -4.61908,-19.82048 -17.17241,-7.66518 -0.80969,14.82957 27.14522,24.80657 20.29716,36.64497 -9.67444,-0.18895 -16.7554,-25.18777 -26.22174,-17.21616 -7.19075,13.82318 15.98351,14.70111 10.16172,19.84366 z"
   id="path4716-0"
   sodipodi:nodetypes="sasccaaacaasscccs"
   class="secondaryColor" /><path
   style="fill:#bd0000;fill-opacity:1;stroke:#000000;stroke-width:2.36163;stroke-linecap:round;stroke-linejoin:round;stroke-dasharray:none"
   d="m 421.67933,381.74842 c 0,0 -74.99065,32.46196 -115.00389,37.00175 -28.11395,3.18972 -56.79878,-1.84019 -84.57408,-7.23476 -29.20355,-5.67196 -64.3172,-18.08988 -85.30555,-26.2322 -18.75291,-7.27511 -33.19879,-21.65679 -44.778922,-38.46655 -9.606641,-18.12894 -6.756569,-39.74748 -4.537076,-59.30861 9.660144,-21.71628 26.579578,-40.87564 46.582408,-54.05957 23.07201,-12.45603 45.96115,-27.45216 72.86524,-29.54663 30.59083,-6.5434 62.0435,-8.30163 93.00934,-3.51081 32.49421,0.33764 67.29775,4.38826 97.39574,-10.48762 20.30886,-17.64005 2.88475,-47.81555 -21.08151,-49.83721 -9.03739,-4.57706 -41.84262,6.69937 -16.93876,-3.77287 21.08811,-8.01268 47.88201,-7.75194 63.35474,10.91993 17.22349,14.01839 15.63551,42.25906 6.7e-4,56.5495 -25.59374,19.70677 -59.14371,20.04255 -89.90039,22.12581 -35.38987,5.15141 -71.84291,3.22797 -106.21649,14.56459 -21.70537,4.35483 -42.92052,27.49596 -33.16547,52.38008 7.88996,24.85993 152.21153,53.64318 230.81117,47.16567"
   id="path4855"
   sodipodi:nodetypes="caascccccccccccccc"
   class="primaryColor" /><path
   style="fill:#bd0000;fill-opacity:1;stroke:#000000;stroke-width:2.36163;stroke-linecap:round;stroke-linejoin:round;stroke-dasharray:none"
   d="m 269.6346,367.21244 c -13.13,-7.69494 -33.67117,-19.47926 -35.12113,-34.80947 12.85212,-6.16122 33.96297,13.56191 37.57098,9.82815 -7.47167,-10.57828 -4.91298,-30.23166 9.98533,-15.37902 5.36036,11.18246 23.34508,21.62608 16.99095,1.26582 -2.31914,-28.62673 25.8661,17.45775 31.77901,9.44265 -0.20414,-14.29764 11.08453,-18.55172 17.66511,-5.34165 14.46328,15.23376 26.23723,-15.45187 41.88558,1.24024 22.9768,13.25595 50.74626,-0.35905 75.89069,2.19257 19.05244,1.29017 37.17184,9.34024 54.21647,17.45607 17.24484,10.87977 36.24328,42.49874 10.15595,54.60528 -23.10542,10.98369 -50.28596,11.08061 -74.91469,5.89728 -17.2236,-5.87725 -41.98563,-7.64942 -48.52968,-39.02282"
   id="path4647"
   sodipodi:nodetypes="ccccccccccccc"
   class="primaryColor" /><path
   style="fill:#ffffff;fill-opacity:1;stroke:#000000;stroke-width:2.36163;stroke-linecap:round;stroke-linejoin:round;stroke-dasharray:none"
   d="m 483.76327,392.49197 c 0.49146,15.22685 4.83582,12.14266 5.07063,-0.40254"
   id="path4875" /><path
   style="display:inline;fill:#ff8900;fill-opacity:1;stroke:#000000;stroke-width:2.36163;stroke-linecap:round;stroke-linejoin:round;stroke-dasharray:none"
   d="m 473.30623,412.27458 c -8.10151,9.85868 11.45699,48.01666 10.85931,21.97533 -0.62645,-23.24752 11.02591,16.11619 16.3739,-0.18835 3.81502,-25.52079 7.32932,6.75176 14.04043,4.51565 6.85752,-2.28489 8.28126,-13.27132 3.72391,-28.78143"
   id="path4718"
   sodipodi:nodetypes="cccsc"
   class="secondaryColor" /><path
   style="fill:#bd0000;fill-opacity:1;stroke:#000000;stroke-width:2.36163;stroke-linecap:round;stroke-linejoin:round;stroke-dasharray:none"
   d="m 254.83737,401.18949 c -17.59456,14.7897 -30.45169,24.68464 -30.17773,49.81398 8.88632,48.56351 76.38284,77.13939 100.80845,72.70132 -7.20528,-7.42132 -11.38451,-15.5711 9.42513,-8.4817 -11.89232,-13.71017 -6.0878,-15.53087 6.50268,-9.32721 -9.47477,-12.18448 -18.31734,-17.55941 -35.54838,-13.42108 -25.12902,6.03517 -51.92167,-16.59229 -53.96489,-42.70966 -1.43303,-18.31666 10.76878,-25.61155 21.14483,-39.81453"
   id="path4851"
   sodipodi:nodetypes="cccccssc"
   class="primaryColor" /><path
   style="fill:#000000;fill-opacity:1;stroke:#000000;stroke-width:2.36163;stroke-linecap:round;stroke-linejoin:round;stroke-dasharray:none"
   d="m 460.04099,368.94163 c -11.254,3.2681 6.69281,16.93581 7.002,5.43969 -0.15711,-3.01682 -3.302,-6.25597 -7.002,-5.43969 z"
   id="path4720" /><path
   style="fill:#000000;fill-opacity:1;stroke:#000000;stroke-width:2.36163;stroke-linecap:round;stroke-linejoin:round;stroke-dasharray:none"
   d="m 519.45361,366.3847 c -4.07704,2.38897 -1.62326,9.28405 3.30413,8.5334 3.99984,-2.80125 2.34586,-9.85012 -3.30413,-8.5334 z"
   id="path4722"
   sodipodi:nodetypes="ccc" /><path
   style="fill:#bd0000;fill-opacity:1;stroke:#000000;stroke-width:2.36163;stroke-linecap:round;stroke-linejoin:round;stroke-dasharray:none"
   d="m 102.75151,311.02672 c -20.161531,3.49248 -26.78742,43.93523 -20.809243,60.94778 1.749506,22.15698 14.897868,40.89227 33.913303,53.78275 4.46599,3.3055 22.2636,16.10697 32.60833,19.15707 -5.74652,-9.74829 -3.32361,-9.36696 6.43244,-6.31165 -8.21403,-6.07341 -6.99374,-10.23772 3.39822,-5.67165 -2.17836,-10.71557 -22.86905,-13.22164 -32.51257,-18.67885 -15.04907,-8.51619 -4.4627,-26.5018 8.00652,-32.03941 12.57467,-5.58441 22.49131,-26.93635 17.85039,-44.92816"
   id="path4869"
   sodipodi:nodetypes="ccccccssc"
   class="primaryColor" /><path
   style="fill:#ffffff;fill-opacity:1;stroke:#000000;stroke-width:2.36163;stroke-linecap:round;stroke-linejoin:round;stroke-dasharray:none"
   d="m 499.69954,391.22683 c 4.73219,12.20678 7.68759,13.39048 7.18625,-1.29942"
   id="path4877" /><path
   style="fill:#bd0000;fill-opacity:1;stroke:#000000;stroke-width:2.36163;stroke-linecap:round;stroke-linejoin:round;stroke-dasharray:none"
   d="m 478.63514,392.17014 c 9.90629,0.22164 21.78043,-0.99537 31.82631,-2.60194"
   id="path4873"
   sodipodi:nodetypes="cc" /><path
   style="display:inline;fill:#ff8900;fill-opacity:1;stroke:#000000;stroke-width:2.36163;stroke-linecap:round;stroke-linejoin:round;stroke-dasharray:none"
   d="m 357.92645,358.01638 c -2.84089,0.0366 -10.05101,-3.9023 -11.81757,-0.37917 -1.19482,2.38288 1.40087,3.7078 4.98672,6.25171 -4.44269,1.2678 -10.22636,-2.48644 -10.96422,1.11219 -0.81448,3.9723 7.06622,6.55491 10.64303,5.89146 -7.17342,1.845 -10.29909,2.14741 -9.3977,5.69822 0.88732,3.49539 6.75155,2.49276 10.80641,0.51761"
   id="path4881"
   sodipodi:nodetypes="cacacac"
   class="secondaryColor" /><path
   style="display:inline;fill:#ff8900;fill-opacity:1;stroke:#000000;stroke-width:2.36163;stroke-linecap:round;stroke-linejoin:round;stroke-dasharray:none"
   d="m 350.66545,342.73299 c -1.87886,5.5498 -17.85395,-3.32675 -17.19075,3.66761 0.92238,9.72795 42.5623,0.9221 63.84627,0.86606 14.46897,-0.0381 46.21111,21.98199 43.39935,-0.81729 -11.90737,-15.99539 -34.16217,-17.77753 -46.13297,-33.26837 -11.262,-15.23773 -11.78318,-36.73921 -24.5051,-50.4308 -4.3921,-4.72688 -11.71085,-13.7521 -16.74347,-9.71397 -6.524,5.23481 13.52332,18.02155 7.59061,23.91806 -7.51314,7.46729 -26.60763,-12.43569 -30.2303,-9.79788 -9.05302,7.91901 17.67976,17.30285 26.52522,25.94858 5.64274,5.51533 20.0897,9.3062 16.93534,16.53874 -2.61734,6.00118 -18.64396,13.04518 -19.6178,-0.96166 -1.10301,-15.86461 -17.52628,-16.47856 -8.65273,2.29945 -1.98947,2.91476 -15.27049,-22.61087 -20.11075,-5.82073 6.67693,13.26613 34.56478,14.93873 34.51559,28.61502 -8.48567,4.65015 -21.83126,-20.56789 -26.0757,-8.94281 0.64118,15.56844 18.93806,10.54236 16.44719,17.89999 z"
   id="path4716"
   sodipodi:nodetypes="ssaccaaacaasccccs"
   class="secondaryColor" /><path
   style="display:inline;fill:#ff8900;fill-opacity:1;stroke:#000000;stroke-width:2.36163;stroke-linecap:round;stroke-linejoin:round;stroke-dasharray:none"
   d="m 305.46971,418.9093 c -7.12647,-1.78261 -18.52245,-4.66398 -18.42203,-11.99004 0.0385,-2.81282 4.06979,-4.54066 7.19656,-4.40795 -4.38736,-3.93521 -8.60657,-3.21836 -7.93062,-6.58787 0.59402,-2.96105 5.52116,-3.81362 8.66289,-2.65332 -5.74642,-6.46999 -7.23634,-6.39038 -5.81809,-9.96608 0.90431,-2.27995 7.05691,-2.0842 7.05691,-2.0842"
   id="path4883"
   sodipodi:nodetypes="cacacac"
   class="secondaryColor" /><path
   style="display:inline;fill:#ff8900;fill-opacity:1;stroke:#000000;stroke-width:2.36163;stroke-linecap:round;stroke-linejoin:round;stroke-dasharray:none"
   d="m 184.08967,391.49818 c -3.75026,-1.77181 -20.85112,-8.13913 -24.44515,-14.09607 -2.17892,-3.61145 9.0013,-4.0707 9.91123,-3.70258 0.22454,0.0908 -0.12679,0.56719 0.0575,0.72437 0.36859,0.31437 1.81734,0.19935 1.44875,-0.11501 -1.10489,-0.94236 -3.02125,-1.23321 -3.8519,-2.60998 -0.25027,-0.41478 0.074,-1.00272 -0.11501,-1.44875 -0.13367,-0.31539 -0.60493,-0.37356 -0.78188,-0.66687 -1.42571,-2.36302 4.4897,-2.67671 4.89809,-2.57567 0.66506,0.16455 0.98489,0.96735 1.56378,1.33374 0.45765,0.28967 1.09418,0.25789 1.50626,0.60937 0.18429,0.15719 -0.18396,0.74354 0.0575,0.72437 1.07983,-0.0857 -1.21935,-1.8015 -1.67878,-2.78249 -0.53296,-1.13802 -1.89535,-5.71322 -1.29943,-7.18625 1.36235,-3.36752 6.06439,-1.2371 8.02564,0.0917 1.38621,0.93928 2.63211,2.24494 3.9094,3.33436"
   id="path4885"
   class="secondaryColor" /><path
   style="display:inline;fill:#ff8900;fill-opacity:1;stroke:#000000;stroke-width:2.36163;stroke-linecap:round;stroke-linejoin:round;stroke-dasharray:none"
   d="m 188.29571,288.38362 c -3.66893,-5.61821 -5.83167,-15.40023 -11.92972,-14.27454 -4.5608,0.84193 -5.47707,6.33665 -4.52261,13.158 -11.17753,-5.88963 -11.66146,1.10313 -4.44024,4.233"
   id="path4887"
   sodipodi:nodetypes="cacc"
   class="secondaryColor" /><path
   style="display:inline;fill:#ff8900;fill-opacity:1;stroke:#000000;stroke-width:2.36163;stroke-linecap:round;stroke-linejoin:round;stroke-dasharray:none"
   d="m 88.170588,294.79731 c -5.033562,-5.30477 3.922864,-17.84087 7.250315,-13.21018 1.020471,1.8887 0.958726,4.32827 0.0157,6.23344 1.283119,-1.77687 5.898217,-5.80635 8.139237,-5.84842 2.13602,0.95655 -1.67978,5.80625 2.04932,4.02565 2.49397,-0.5879 6.85506,-3.02807 8.19975,0.39011 1.45362,3.19031 -1.79524,4.58399 -3.93432,6.03324"
   id="path4889"
   sodipodi:nodetypes="ccccsss"
   class="secondaryColor" /><path
   style="display:inline;fill:#ff8900;fill-opacity:1;stroke:#000000;stroke-width:2.36163;stroke-linecap:round;stroke-linejoin:round;stroke-dasharray:none"
   d="m 190.85826,219.65974 c 7.46912,-3.08325 19.6263,-4.79976 12.65942,3.36865 -0.35145,0.41208 -1.43409,0.29946 -1.39124,0.83938 0.15793,1.98933 5.16438,2.64766 6.14005,3.88621 2.05396,2.60739 -5.25613,2.6041 -6.34686,2.69069"
   id="path4891"
   class="secondaryColor" /><path
   style="display:inline;fill:#ff8900;fill-opacity:1;stroke:#000000;stroke-width:2.36163;stroke-linecap:round;stroke-linejoin:round;stroke-dasharray:none"
   d="m 319.79712,209.42366 c 0.68303,-0.75069 7.16314,-1.59073 7.18626,-1.29943 0.2026,2.55204 -2.85918,2.76542 -3.39185,3.18502 -0.6017,0.47399 -1.2208,1.85752 -0.55186,2.23064 3.76264,2.09866 8.75306,2.73821 12.10757,5.59929 0.18428,0.15718 -0.48293,0.0384 -0.72438,0.0575 -1.2073,0.0959 -2.41459,0.19168 -3.62187,0.28753 -2.41459,0.19168 -4.82917,0.38338 -7.24376,0.57506"
   id="path4893"
   class="secondaryColor" /><path
   style="display:inline;fill:#ff8900;fill-opacity:1;stroke:#000000;stroke-width:2.36163;stroke-linecap:round;stroke-linejoin:round;stroke-dasharray:none"
   d="m 414.20709,186.62097 c -4.32302,-3.73755 4.43479,-7.20092 5.44997,-4.80629 0.70543,1.66398 0.21958,1.53795 1.67878,2.78248"
   id="path4895" /></g>
</svg>
