<?xml version="1.0" encoding="UTF-8" standalone="no"?>
<!-- Created with Inkscape (http://www.inkscape.org/) -->

<svg
   width="512"
   height="512"
   viewBox="0 0 512 512"
   version="1.1"
   id="svg5"
   xml:space="preserve"
   inkscape:version="1.2.1 (9c6d41e410, 2022-07-14)"
   sodipodi:docname="4.svg"
   xmlns:inkscape="http://www.inkscape.org/namespaces/inkscape"
   xmlns:sodipodi="http://sodipodi.sourceforge.net/DTD/sodipodi-0.dtd"
   xmlns="http://www.w3.org/2000/svg"
   xmlns:svg="http://www.w3.org/2000/svg">
	<sodipodi:namedview
   id="namedview7"
   pagecolor="#ffffff"
   bordercolor="#000000"
   borderopacity="0.25"
   inkscape:showpageshadow="2"
   inkscape:pageopacity="0.0"
   inkscape:pagecheckerboard="0"
   inkscape:deskcolor="#d1d1d1"
   inkscape:document-units="px"
   showgrid="false"
   inkscape:zoom="0.8125"
   inkscape:cx="412.92308"
   inkscape:cy="286.76923"
   inkscape:window-width="1920"
   inkscape:window-height="1009"
   inkscape:window-x="-8"
   inkscape:window-y="-8"
   inkscape:window-maximized="1"
   inkscape:current-layer="layer3" />
	<defs
   id="defs2"/>
   <linearGradient id="rainbow" gradientUnits="userSpaceOnUse">
      <stop offset="20%" stop-color="rgb(255,0,0)"/>
      <stop offset="40%" stop-color="rgb(255,255,0)"/>
      <stop offset="60%" stop-color="rgb(0,192,255)"/>
      <stop offset="80%" stop-color="rgb(192,0,255)"/>
    </linearGradient>
	<g
   inkscape:groupmode="layer"
   id="layer3"
   inkscape:label="Layer 2"
   style="display:inline">
		<ellipse
   style="fill:#000000;fill-opacity:0.1;stroke:none;stroke-width:2.18363;stroke-linecap:round;stroke-linejoin:round;stroke-dasharray:none;stroke-opacity:1"
   id="path7282"
   cx="244.25372"
   cy="472.06262"
   rx="124.30337"
   ry="28.052902" />
	</g>
	<g
   inkscape:label="Layer 1"
   inkscape:groupmode="layer"
   id="layer1"
   transform="translate(-51.269096,-87.060729)"
   style="display:inline">
	
		
		
		
		
		
		
		
		
		
		
		
		
		
		
		
		
		
		
		
	<path
   style="display:inline;fill:#25ff00;fill-opacity:1;stroke:#000000;stroke-width:3;stroke-linecap:round;stroke-linejoin:round;stroke-dasharray:none;stroke-opacity:1"
   d="m 215.61431,202.16952 c -19.16653,-15.43266 -22.41077,-39.81842 -21.71283,-65.37195 12.09557,8.48856 16.13091,11.57806 22.72992,22.51288 7.24818,-10.16323 8.00352,-26.58326 31.63478,-41.00027 0.58565,27.77912 -9.73031,40.98095 -13.08677,48.41564 8.32863,1.5921 19.08465,-3.55158 30.99686,-1.61709 -15.0284,21.40966 -27.73087,32.30098 -38.59083,37.32011"
   id="path16792"
   sodipodi:nodetypes="ccccccc"
   class="secondaryColor" /><path
   style="display:inline;fill:#ffde07;fill-opacity:1;stroke:#000000;stroke-width:3;stroke-linecap:round;stroke-linejoin:round;stroke-dasharray:none;stroke-opacity:1"
   d="m 296.88628,305.16008 c -7.27714,-30.16794 -60.10067,-62.77319 -68.33914,-100.82799 -2.17878,-17.40226 -2.29616,-54.4798 -13.63225,-17.48214 -9.51446,38.60818 23.52903,83.25444 31.25493,115.82481"
   id="path16790"
   sodipodi:nodetypes="cccc" class="primaryColor"/><path
   style="display:inline;fill:#25ff00;fill-opacity:1;stroke:#000000;stroke-width:3;stroke-linecap:round;stroke-linejoin:round;stroke-dasharray:none;stroke-opacity:1"
   d="m 347.32004,349.578 c 27.99121,-2.72745 46.73792,-28.02215 5.69464,-26.13443 9.88888,-34.71486 -34.86558,-21.71658 -29.63666,1.37474"
   id="path16800-9"
   sodipodi:nodetypes="ccc"
   class="secondaryColor" /><path
   style="display:inline;fill:#ffde07;fill-opacity:1;stroke:#000000;stroke-width:3;stroke-linecap:round;stroke-linejoin:round;stroke-dasharray:none;stroke-opacity:1"
   d="m 386.49568,377.61417 c -19.70119,-52.96654 -104.05033,-101.589 -157.93039,-82.62545 -48.40945,17.84893 -80.25773,80.1132 -53.91667,127.70224 12.7718,51.41016 94.77511,77.14295 124.4273,26.54371 24.1851,-31.54219 -2.17586,-83.84036 -41.40397,-75.2712 -27.68945,8.50557 -12.43233,43.39836 3.23308,55.32184"
   id="path16788"
   sodipodi:nodetypes="cccccc"
   class="primaryColor" /><path
   style="fill:#25ff00;fill-opacity:1;stroke:#000000;stroke-width:3;stroke-linecap:round;stroke-linejoin:round;stroke-dasharray:none;stroke-opacity:1"
   d="m 267.19309,356.5527 c -15.11176,24.89108 -16.79748,71.13701 6.11975,37.30041 6.79255,51.32857 27.8498,0.64559 16.54393,-24.44746"
   id="path16800"
   sodipodi:nodetypes="ccc"
   class="secondaryColor" /><path
   style="display:inline;fill:#ffde07;fill-opacity:1;stroke:#000000;stroke-width:3;stroke-linecap:round;stroke-linejoin:round;stroke-dasharray:none;stroke-opacity:1"
   d="m 310.43372,355.23897 c -11.46858,3.97915 -12.05134,19.64008 -10.10572,34.98762 -0.15945,18.77434 4.42035,45.02263 16.57977,61.34949 19.45869,26.12786 55.06681,28.68392 80.56324,21.00771 9.58572,-6.16472 17.86143,-14.14277 27.73178,-54.23824 0,0 21.90094,-43.44228 11.88188,-56.20531 -6.53554,-8.32551 -21.56212,7.04686 -31.55339,3.55378 -11.24357,-3.9309 -13.41575,-24.2166 -25.28156,-25.2521 -12.08331,-1.05449 -18.00048,18.10066 -29.81008,20.86672 -13.13251,3.07591 -30.26987,-9.44772 -40.00592,-6.06967 z"
   id="path14707"
   sodipodi:nodetypes="scscssaaas"
   class="primaryColor" /><path
   style="fill:#25ff00;fill-opacity:1;stroke:#000000;stroke-width:3;stroke-linecap:round;stroke-linejoin:round;stroke-dasharray:none;stroke-opacity:1"
   d="m 215.49336,456.62201 c -7.96209,24.25772 8.21007,51.02928 19.85092,26.62867 1.0182,29.34462 28.34158,28.89913 19.29348,-0.30446 -1.45749,-8.59588 -4.24056,-17.04686 -8.84818,-24.48815"
   id="path16802"
   class="secondaryColor" /><path
   style="fill:#ffde07;fill-opacity:1;stroke:#000000;stroke-width:3;stroke-linecap:round;stroke-linejoin:round;stroke-dasharray:none;stroke-opacity:1"
   d="m 373.86948,454.976 c 8.96875,0.81114 12.92364,-0.18488 20.03993,-1.05247"
   id="path16812"
   sodipodi:nodetypes="cc" /><ellipse
   style="fill:#000000;fill-opacity:1;stroke:none;stroke-width:18.9559;stroke-linecap:round;stroke-linejoin:round;stroke-dasharray:none;stroke-opacity:1"
   id="path16906"
   cx="351.84756"
   cy="426.55136"
   rx="2.7589781"
   ry="5.3556633" /><ellipse
   style="display:inline;fill:#000000;fill-opacity:1;stroke:none;stroke-width:18.9559;stroke-linecap:round;stroke-linejoin:round;stroke-dasharray:none;stroke-opacity:1"
   id="path16906-0"
   cx="462.79364"
   cy="368.92862"
   rx="2.7589781"
   ry="5.3556633"
   transform="rotate(7.6200001)" /></g>
</svg>
